<mxfile host="65bd71144e">
    <diagram id="LfA3yITTNrHHXo6jtGGB" name="Ref">
        <mxGraphModel dx="771" dy="300" grid="1" gridSize="10" guides="1" tooltips="1" connect="1" arrows="1" fold="1" page="1" pageScale="1" pageWidth="850" pageHeight="1100" math="0" shadow="0">
            <root>
                <mxCell id="0"/>
                <mxCell id="1" parent="0"/>
                <mxCell id="2" value="" style="ellipse;whiteSpace=wrap;html=1;aspect=fixed;" vertex="1" parent="1">
                    <mxGeometry x="280" y="80" width="40" height="40" as="geometry"/>
                </mxCell>
                <mxCell id="3" value="" style="ellipse;whiteSpace=wrap;html=1;aspect=fixed;" vertex="1" parent="1">
                    <mxGeometry x="280" y="130" width="40" height="40" as="geometry"/>
                </mxCell>
                <mxCell id="4" value="" style="endArrow=none;html=1;exitX=0;exitY=1;exitDx=0;exitDy=0;entryX=1;entryY=0;entryDx=0;entryDy=0;" edge="1" parent="1" source="3" target="3">
                    <mxGeometry width="50" height="50" relative="1" as="geometry">
                        <mxPoint x="400" y="220" as="sourcePoint"/>
                        <mxPoint x="450" y="170" as="targetPoint"/>
                    </mxGeometry>
                </mxCell>
                <mxCell id="5" value="" style="curved=1;endArrow=none;html=1;exitX=0;exitY=1;exitDx=0;exitDy=0;entryX=1;entryY=0;entryDx=0;entryDy=0;strokeColor=default;endFill=0;" edge="1" parent="1" source="2" target="2">
                    <mxGeometry width="50" height="50" relative="1" as="geometry">
                        <mxPoint x="400" y="250" as="sourcePoint"/>
                        <mxPoint x="450" y="200" as="targetPoint"/>
                        <Array as="points">
                            <mxPoint x="300" y="110"/>
                            <mxPoint x="300" y="86"/>
                        </Array>
                    </mxGeometry>
                </mxCell>
                <mxCell id="6" value="Sigmoid Unit" style="text;html=1;strokeColor=none;fillColor=none;align=center;verticalAlign=middle;whiteSpace=wrap;rounded=0;" vertex="1" parent="1">
                    <mxGeometry x="330" y="80" width="50" height="40" as="geometry"/>
                </mxCell>
                <mxCell id="7" value="Linear Unit" style="text;html=1;strokeColor=none;fillColor=none;align=center;verticalAlign=middle;whiteSpace=wrap;rounded=0;" vertex="1" parent="1">
                    <mxGeometry x="330" y="130" width="50" height="40" as="geometry"/>
                </mxCell>
                <mxCell id="fM-o_v5VPpl3s6eUXT7K-7" value="" style="ellipse;whiteSpace=wrap;html=1;aspect=fixed;" vertex="1" parent="1">
                    <mxGeometry x="280" y="180" width="40" height="40" as="geometry"/>
                </mxCell>
                <mxCell id="fM-o_v5VPpl3s6eUXT7K-8" value="" style="shape=flexArrow;endArrow=classic;html=1;strokeColor=default;entryX=0;entryY=0.5;entryDx=0;entryDy=0;" edge="1" parent="1" target="fM-o_v5VPpl3s6eUXT7K-7">
                    <mxGeometry width="50" height="50" relative="1" as="geometry">
                        <mxPoint x="240" y="200" as="sourcePoint"/>
                        <mxPoint x="250" y="160" as="targetPoint"/>
                    </mxGeometry>
                </mxCell>
                <mxCell id="fM-o_v5VPpl3s6eUXT7K-9" value="Input Unit" style="text;html=1;strokeColor=none;fillColor=none;align=center;verticalAlign=middle;whiteSpace=wrap;rounded=0;" vertex="1" parent="1">
                    <mxGeometry x="330" y="180" width="50" height="40" as="geometry"/>
                </mxCell>
                <mxCell id="fM-o_v5VPpl3s6eUXT7K-11" value="" style="shape=flexArrow;endArrow=classic;html=1;strokeColor=default;exitX=1;exitY=0.5;exitDx=0;exitDy=0;" edge="1" parent="1" source="VP8AEe1Ilr-hrDGAe2O--7">
                    <mxGeometry width="50" height="50" relative="1" as="geometry">
                        <mxPoint x="280" y="250" as="sourcePoint"/>
                        <mxPoint x="320" y="250" as="targetPoint"/>
                    </mxGeometry>
                </mxCell>
                <mxCell id="fM-o_v5VPpl3s6eUXT7K-12" value="Output Unit" style="text;html=1;strokeColor=none;fillColor=none;align=center;verticalAlign=middle;whiteSpace=wrap;rounded=0;" vertex="1" parent="1">
                    <mxGeometry x="330" y="230" width="50" height="40" as="geometry"/>
                </mxCell>
                <mxCell id="VP8AEe1Ilr-hrDGAe2O--7" value="" style="ellipse;whiteSpace=wrap;html=1;aspect=fixed;" vertex="1" parent="1">
                    <mxGeometry x="240" y="230" width="40" height="40" as="geometry"/>
                </mxCell>
                <mxCell id="VP8AEe1Ilr-hrDGAe2O--8" value="" style="endArrow=none;html=1;exitX=0;exitY=1;exitDx=0;exitDy=0;entryX=1;entryY=0;entryDx=0;entryDy=0;" edge="1" parent="1" source="VP8AEe1Ilr-hrDGAe2O--7" target="VP8AEe1Ilr-hrDGAe2O--7">
                    <mxGeometry width="50" height="50" relative="1" as="geometry">
                        <mxPoint x="360" y="320" as="sourcePoint"/>
                        <mxPoint x="410" y="270" as="targetPoint"/>
                    </mxGeometry>
                </mxCell>
            </root>
        </mxGraphModel>
    </diagram>
    <diagram id="L2V7dKkVdAos4mQ8t60s" name="net1">
        <mxGraphModel dx="932" dy="363" grid="1" gridSize="10" guides="1" tooltips="1" connect="1" arrows="1" fold="1" page="1" pageScale="1" pageWidth="850" pageHeight="1100" math="0" shadow="0">
            <root>
                <mxCell id="YFoPu33pNENb128z7Xlp-0"/>
                <mxCell id="YFoPu33pNENb128z7Xlp-1" parent="YFoPu33pNENb128z7Xlp-0"/>
                <mxCell id="GnwpRJJ6mjAo8ZO4SKfw-9" style="edgeStyle=none;html=1;exitX=1;exitY=0.5;exitDx=0;exitDy=0;entryX=0;entryY=0.5;entryDx=0;entryDy=0;endArrow=none;endFill=0;strokeColor=default;" edge="1" parent="YFoPu33pNENb128z7Xlp-1" source="PlKBOixw7W2VrsJv5xA3-0" target="GnwpRJJ6mjAo8ZO4SKfw-1">
                    <mxGeometry relative="1" as="geometry"/>
                </mxCell>
                <mxCell id="GnwpRJJ6mjAo8ZO4SKfw-10" style="edgeStyle=none;html=1;exitX=1;exitY=0.5;exitDx=0;exitDy=0;entryX=0;entryY=0.5;entryDx=0;entryDy=0;endArrow=none;endFill=0;strokeColor=default;" edge="1" parent="YFoPu33pNENb128z7Xlp-1" source="PlKBOixw7W2VrsJv5xA3-0" target="GnwpRJJ6mjAo8ZO4SKfw-4">
                    <mxGeometry relative="1" as="geometry"/>
                </mxCell>
                <mxCell id="GnwpRJJ6mjAo8ZO4SKfw-11" style="edgeStyle=none;html=1;exitX=1;exitY=0.5;exitDx=0;exitDy=0;entryX=0;entryY=0.5;entryDx=0;entryDy=0;endArrow=none;endFill=0;strokeColor=default;" edge="1" parent="YFoPu33pNENb128z7Xlp-1" source="PlKBOixw7W2VrsJv5xA3-0" target="GnwpRJJ6mjAo8ZO4SKfw-7">
                    <mxGeometry relative="1" as="geometry"/>
                </mxCell>
                <mxCell id="PlKBOixw7W2VrsJv5xA3-0" value="" style="ellipse;whiteSpace=wrap;html=1;aspect=fixed;" vertex="1" parent="YFoPu33pNENb128z7Xlp-1">
                    <mxGeometry x="120" y="40" width="40" height="40" as="geometry"/>
                </mxCell>
                <mxCell id="PlKBOixw7W2VrsJv5xA3-1" value="" style="shape=flexArrow;endArrow=classic;html=1;strokeColor=default;entryX=0;entryY=0.5;entryDx=0;entryDy=0;" edge="1" parent="YFoPu33pNENb128z7Xlp-1" target="PlKBOixw7W2VrsJv5xA3-0">
                    <mxGeometry width="50" height="50" relative="1" as="geometry">
                        <mxPoint x="80.00000000000011" y="60" as="sourcePoint"/>
                        <mxPoint x="90" y="20" as="targetPoint"/>
                    </mxGeometry>
                </mxCell>
                <mxCell id="GnwpRJJ6mjAo8ZO4SKfw-12" style="edgeStyle=none;html=1;exitX=1;exitY=0.5;exitDx=0;exitDy=0;entryX=0;entryY=0.5;entryDx=0;entryDy=0;endArrow=none;endFill=0;strokeColor=default;" edge="1" parent="YFoPu33pNENb128z7Xlp-1" source="PlKBOixw7W2VrsJv5xA3-2" target="GnwpRJJ6mjAo8ZO4SKfw-1">
                    <mxGeometry relative="1" as="geometry"/>
                </mxCell>
                <mxCell id="GnwpRJJ6mjAo8ZO4SKfw-13" style="edgeStyle=none;html=1;exitX=1;exitY=0.5;exitDx=0;exitDy=0;entryX=0;entryY=0.5;entryDx=0;entryDy=0;endArrow=none;endFill=0;strokeColor=default;" edge="1" parent="YFoPu33pNENb128z7Xlp-1" source="PlKBOixw7W2VrsJv5xA3-2" target="GnwpRJJ6mjAo8ZO4SKfw-4">
                    <mxGeometry relative="1" as="geometry"/>
                </mxCell>
                <mxCell id="GnwpRJJ6mjAo8ZO4SKfw-14" style="edgeStyle=none;html=1;exitX=1;exitY=0.5;exitDx=0;exitDy=0;entryX=0;entryY=0.5;entryDx=0;entryDy=0;endArrow=none;endFill=0;strokeColor=default;" edge="1" parent="YFoPu33pNENb128z7Xlp-1" source="PlKBOixw7W2VrsJv5xA3-2" target="GnwpRJJ6mjAo8ZO4SKfw-7">
                    <mxGeometry relative="1" as="geometry"/>
                </mxCell>
                <mxCell id="PlKBOixw7W2VrsJv5xA3-2" value="" style="ellipse;whiteSpace=wrap;html=1;aspect=fixed;" vertex="1" parent="YFoPu33pNENb128z7Xlp-1">
                    <mxGeometry x="120" y="100" width="40" height="40" as="geometry"/>
                </mxCell>
                <mxCell id="PlKBOixw7W2VrsJv5xA3-3" value="" style="shape=flexArrow;endArrow=classic;html=1;strokeColor=default;entryX=0;entryY=0.5;entryDx=0;entryDy=0;" edge="1" parent="YFoPu33pNENb128z7Xlp-1" target="PlKBOixw7W2VrsJv5xA3-2">
                    <mxGeometry width="50" height="50" relative="1" as="geometry">
                        <mxPoint x="80.00000000000011" y="120" as="sourcePoint"/>
                        <mxPoint x="90" y="80" as="targetPoint"/>
                    </mxGeometry>
                </mxCell>
                <mxCell id="GnwpRJJ6mjAo8ZO4SKfw-0" value="" style="shape=flexArrow;endArrow=classic;html=1;strokeColor=default;exitX=1;exitY=0.5;exitDx=0;exitDy=0;" edge="1" parent="YFoPu33pNENb128z7Xlp-1" source="GnwpRJJ6mjAo8ZO4SKfw-1">
                    <mxGeometry width="50" height="50" relative="1" as="geometry">
                        <mxPoint x="260" y="40" as="sourcePoint"/>
                        <mxPoint x="300" y="40" as="targetPoint"/>
                    </mxGeometry>
                </mxCell>
                <mxCell id="GnwpRJJ6mjAo8ZO4SKfw-1" value="" style="ellipse;whiteSpace=wrap;html=1;aspect=fixed;" vertex="1" parent="YFoPu33pNENb128z7Xlp-1">
                    <mxGeometry x="220" y="20" width="40" height="40" as="geometry"/>
                </mxCell>
                <mxCell id="GnwpRJJ6mjAo8ZO4SKfw-2" value="" style="endArrow=none;html=1;exitX=0;exitY=1;exitDx=0;exitDy=0;entryX=1;entryY=0;entryDx=0;entryDy=0;" edge="1" parent="YFoPu33pNENb128z7Xlp-1" source="GnwpRJJ6mjAo8ZO4SKfw-1" target="GnwpRJJ6mjAo8ZO4SKfw-1">
                    <mxGeometry width="50" height="50" relative="1" as="geometry">
                        <mxPoint x="340" y="110" as="sourcePoint"/>
                        <mxPoint x="390" y="60" as="targetPoint"/>
                    </mxGeometry>
                </mxCell>
                <mxCell id="GnwpRJJ6mjAo8ZO4SKfw-3" value="" style="shape=flexArrow;endArrow=classic;html=1;strokeColor=default;exitX=1;exitY=0.5;exitDx=0;exitDy=0;" edge="1" parent="YFoPu33pNENb128z7Xlp-1" source="GnwpRJJ6mjAo8ZO4SKfw-4">
                    <mxGeometry width="50" height="50" relative="1" as="geometry">
                        <mxPoint x="260" y="90" as="sourcePoint"/>
                        <mxPoint x="300" y="90" as="targetPoint"/>
                    </mxGeometry>
                </mxCell>
                <mxCell id="GnwpRJJ6mjAo8ZO4SKfw-4" value="" style="ellipse;whiteSpace=wrap;html=1;aspect=fixed;" vertex="1" parent="YFoPu33pNENb128z7Xlp-1">
                    <mxGeometry x="220" y="70" width="40" height="40" as="geometry"/>
                </mxCell>
                <mxCell id="GnwpRJJ6mjAo8ZO4SKfw-5" value="" style="endArrow=none;html=1;exitX=0;exitY=1;exitDx=0;exitDy=0;entryX=1;entryY=0;entryDx=0;entryDy=0;" edge="1" parent="YFoPu33pNENb128z7Xlp-1" source="GnwpRJJ6mjAo8ZO4SKfw-4" target="GnwpRJJ6mjAo8ZO4SKfw-4">
                    <mxGeometry width="50" height="50" relative="1" as="geometry">
                        <mxPoint x="340" y="160" as="sourcePoint"/>
                        <mxPoint x="390" y="110" as="targetPoint"/>
                    </mxGeometry>
                </mxCell>
                <mxCell id="GnwpRJJ6mjAo8ZO4SKfw-6" value="" style="shape=flexArrow;endArrow=classic;html=1;strokeColor=default;exitX=1;exitY=0.5;exitDx=0;exitDy=0;" edge="1" parent="YFoPu33pNENb128z7Xlp-1" source="GnwpRJJ6mjAo8ZO4SKfw-7">
                    <mxGeometry width="50" height="50" relative="1" as="geometry">
                        <mxPoint x="260" y="140" as="sourcePoint"/>
                        <mxPoint x="300" y="140" as="targetPoint"/>
                    </mxGeometry>
                </mxCell>
                <mxCell id="GnwpRJJ6mjAo8ZO4SKfw-7" value="" style="ellipse;whiteSpace=wrap;html=1;aspect=fixed;" vertex="1" parent="YFoPu33pNENb128z7Xlp-1">
                    <mxGeometry x="220" y="120" width="40" height="40" as="geometry"/>
                </mxCell>
                <mxCell id="GnwpRJJ6mjAo8ZO4SKfw-8" value="" style="endArrow=none;html=1;exitX=0;exitY=1;exitDx=0;exitDy=0;entryX=1;entryY=0;entryDx=0;entryDy=0;" edge="1" parent="YFoPu33pNENb128z7Xlp-1" source="GnwpRJJ6mjAo8ZO4SKfw-7" target="GnwpRJJ6mjAo8ZO4SKfw-7">
                    <mxGeometry width="50" height="50" relative="1" as="geometry">
                        <mxPoint x="340" y="210" as="sourcePoint"/>
                        <mxPoint x="390" y="160" as="targetPoint"/>
                    </mxGeometry>
                </mxCell>
            </root>
        </mxGraphModel>
    </diagram>
    <diagram id="yYBUS91VJpB7UoBtwiZj" name="net2">
        <mxGraphModel dx="771" dy="300" grid="1" gridSize="10" guides="1" tooltips="1" connect="1" arrows="1" fold="1" page="1" pageScale="1" pageWidth="850" pageHeight="1100" math="0" shadow="0">
            <root>
                <mxCell id="GeNnxmpwi4FWAQNpwRj0-0"/>
                <mxCell id="GeNnxmpwi4FWAQNpwRj0-1" parent="GeNnxmpwi4FWAQNpwRj0-0"/>
                <mxCell id="-T_Ne5oc-l_mOEuj397E-0" style="edgeStyle=none;html=1;exitX=1;exitY=0.5;exitDx=0;exitDy=0;entryX=0;entryY=0.5;entryDx=0;entryDy=0;endArrow=none;endFill=0;strokeColor=default;" edge="1" parent="GeNnxmpwi4FWAQNpwRj0-1" source="-T_Ne5oc-l_mOEuj397E-5" target="-T_Ne5oc-l_mOEuj397E-26">
                    <mxGeometry relative="1" as="geometry"/>
                </mxCell>
                <mxCell id="-T_Ne5oc-l_mOEuj397E-1" style="edgeStyle=none;html=1;exitX=1;exitY=0.5;exitDx=0;exitDy=0;entryX=0;entryY=0.5;entryDx=0;entryDy=0;endArrow=none;endFill=0;strokeColor=default;" edge="1" parent="GeNnxmpwi4FWAQNpwRj0-1" source="-T_Ne5oc-l_mOEuj397E-5" target="-T_Ne5oc-l_mOEuj397E-31">
                    <mxGeometry relative="1" as="geometry"/>
                </mxCell>
                <mxCell id="-T_Ne5oc-l_mOEuj397E-2" style="edgeStyle=none;html=1;exitX=1;exitY=0.5;exitDx=0;exitDy=0;entryX=0;entryY=0.5;entryDx=0;entryDy=0;endArrow=none;endFill=0;strokeColor=default;" edge="1" parent="GeNnxmpwi4FWAQNpwRj0-1" source="-T_Ne5oc-l_mOEuj397E-5" target="-T_Ne5oc-l_mOEuj397E-36">
                    <mxGeometry relative="1" as="geometry"/>
                </mxCell>
                <mxCell id="-T_Ne5oc-l_mOEuj397E-3" style="edgeStyle=none;html=1;exitX=1;exitY=0.5;exitDx=0;exitDy=0;entryX=0;entryY=0.5;entryDx=0;entryDy=0;endArrow=none;endFill=0;strokeColor=default;" edge="1" parent="GeNnxmpwi4FWAQNpwRj0-1" source="-T_Ne5oc-l_mOEuj397E-5" target="-T_Ne5oc-l_mOEuj397E-41">
                    <mxGeometry relative="1" as="geometry"/>
                </mxCell>
                <mxCell id="-T_Ne5oc-l_mOEuj397E-4" style="edgeStyle=none;html=1;exitX=1;exitY=0.5;exitDx=0;exitDy=0;entryX=0;entryY=0.5;entryDx=0;entryDy=0;endArrow=none;endFill=0;strokeColor=default;" edge="1" parent="GeNnxmpwi4FWAQNpwRj0-1" source="-T_Ne5oc-l_mOEuj397E-5" target="-T_Ne5oc-l_mOEuj397E-46">
                    <mxGeometry relative="1" as="geometry"/>
                </mxCell>
                <mxCell id="-T_Ne5oc-l_mOEuj397E-5" value="" style="ellipse;whiteSpace=wrap;html=1;aspect=fixed;" vertex="1" parent="GeNnxmpwi4FWAQNpwRj0-1">
                    <mxGeometry x="120" y="40" width="40" height="40" as="geometry"/>
                </mxCell>
                <mxCell id="-T_Ne5oc-l_mOEuj397E-6" value="" style="shape=flexArrow;endArrow=classic;html=1;strokeColor=default;entryX=0;entryY=0.5;entryDx=0;entryDy=0;" edge="1" parent="GeNnxmpwi4FWAQNpwRj0-1" target="-T_Ne5oc-l_mOEuj397E-5">
                    <mxGeometry width="50" height="50" relative="1" as="geometry">
                        <mxPoint x="80.00000000000011" y="60" as="sourcePoint"/>
                        <mxPoint x="90" y="20" as="targetPoint"/>
                    </mxGeometry>
                </mxCell>
                <mxCell id="-T_Ne5oc-l_mOEuj397E-7" style="edgeStyle=none;html=1;exitX=1;exitY=0.5;exitDx=0;exitDy=0;entryX=0;entryY=0.5;entryDx=0;entryDy=0;endArrow=none;endFill=0;strokeColor=default;" edge="1" parent="GeNnxmpwi4FWAQNpwRj0-1" source="-T_Ne5oc-l_mOEuj397E-12" target="-T_Ne5oc-l_mOEuj397E-26">
                    <mxGeometry relative="1" as="geometry"/>
                </mxCell>
                <mxCell id="-T_Ne5oc-l_mOEuj397E-8" style="edgeStyle=none;html=1;exitX=1;exitY=0.5;exitDx=0;exitDy=0;entryX=0;entryY=0.5;entryDx=0;entryDy=0;endArrow=none;endFill=0;strokeColor=default;" edge="1" parent="GeNnxmpwi4FWAQNpwRj0-1" source="-T_Ne5oc-l_mOEuj397E-12" target="-T_Ne5oc-l_mOEuj397E-31">
                    <mxGeometry relative="1" as="geometry"/>
                </mxCell>
                <mxCell id="-T_Ne5oc-l_mOEuj397E-9" style="edgeStyle=none;html=1;exitX=1;exitY=0.5;exitDx=0;exitDy=0;entryX=0;entryY=0.5;entryDx=0;entryDy=0;endArrow=none;endFill=0;strokeColor=default;" edge="1" parent="GeNnxmpwi4FWAQNpwRj0-1" source="-T_Ne5oc-l_mOEuj397E-12" target="-T_Ne5oc-l_mOEuj397E-36">
                    <mxGeometry relative="1" as="geometry"/>
                </mxCell>
                <mxCell id="-T_Ne5oc-l_mOEuj397E-10" style="edgeStyle=none;html=1;exitX=1;exitY=0.5;exitDx=0;exitDy=0;entryX=0;entryY=0.5;entryDx=0;entryDy=0;endArrow=none;endFill=0;strokeColor=default;" edge="1" parent="GeNnxmpwi4FWAQNpwRj0-1" source="-T_Ne5oc-l_mOEuj397E-12" target="-T_Ne5oc-l_mOEuj397E-41">
                    <mxGeometry relative="1" as="geometry"/>
                </mxCell>
                <mxCell id="-T_Ne5oc-l_mOEuj397E-11" style="edgeStyle=none;html=1;exitX=1;exitY=0.5;exitDx=0;exitDy=0;entryX=0;entryY=0.5;entryDx=0;entryDy=0;endArrow=none;endFill=0;strokeColor=default;" edge="1" parent="GeNnxmpwi4FWAQNpwRj0-1" source="-T_Ne5oc-l_mOEuj397E-12" target="-T_Ne5oc-l_mOEuj397E-46">
                    <mxGeometry relative="1" as="geometry"/>
                </mxCell>
                <mxCell id="-T_Ne5oc-l_mOEuj397E-12" value="" style="ellipse;whiteSpace=wrap;html=1;aspect=fixed;" vertex="1" parent="GeNnxmpwi4FWAQNpwRj0-1">
                    <mxGeometry x="120" y="100" width="40" height="40" as="geometry"/>
                </mxCell>
                <mxCell id="-T_Ne5oc-l_mOEuj397E-13" value="" style="shape=flexArrow;endArrow=classic;html=1;strokeColor=default;entryX=0;entryY=0.5;entryDx=0;entryDy=0;" edge="1" parent="GeNnxmpwi4FWAQNpwRj0-1" target="-T_Ne5oc-l_mOEuj397E-12">
                    <mxGeometry width="50" height="50" relative="1" as="geometry">
                        <mxPoint x="80.00000000000011" y="120.00000000000011" as="sourcePoint"/>
                        <mxPoint x="90" y="80" as="targetPoint"/>
                    </mxGeometry>
                </mxCell>
                <mxCell id="-T_Ne5oc-l_mOEuj397E-14" value="" style="shape=flexArrow;endArrow=classic;html=1;strokeColor=default;exitX=1;exitY=0.5;exitDx=0;exitDy=0;" edge="1" parent="GeNnxmpwi4FWAQNpwRj0-1" source="-T_Ne5oc-l_mOEuj397E-15">
                    <mxGeometry width="50" height="50" relative="1" as="geometry">
                        <mxPoint x="425" y="40" as="sourcePoint"/>
                        <mxPoint x="465" y="40" as="targetPoint"/>
                    </mxGeometry>
                </mxCell>
                <mxCell id="-T_Ne5oc-l_mOEuj397E-15" value="" style="ellipse;whiteSpace=wrap;html=1;aspect=fixed;" vertex="1" parent="GeNnxmpwi4FWAQNpwRj0-1">
                    <mxGeometry x="385" y="20" width="40" height="40" as="geometry"/>
                </mxCell>
                <mxCell id="-T_Ne5oc-l_mOEuj397E-16" value="" style="endArrow=none;html=1;exitX=0;exitY=1;exitDx=0;exitDy=0;entryX=1;entryY=0;entryDx=0;entryDy=0;" edge="1" parent="GeNnxmpwi4FWAQNpwRj0-1" source="-T_Ne5oc-l_mOEuj397E-15" target="-T_Ne5oc-l_mOEuj397E-15">
                    <mxGeometry width="50" height="50" relative="1" as="geometry">
                        <mxPoint x="505" y="110" as="sourcePoint"/>
                        <mxPoint x="555" y="60" as="targetPoint"/>
                    </mxGeometry>
                </mxCell>
                <mxCell id="-T_Ne5oc-l_mOEuj397E-17" value="" style="shape=flexArrow;endArrow=classic;html=1;strokeColor=default;exitX=1;exitY=0.5;exitDx=0;exitDy=0;" edge="1" parent="GeNnxmpwi4FWAQNpwRj0-1" source="-T_Ne5oc-l_mOEuj397E-18">
                    <mxGeometry width="50" height="50" relative="1" as="geometry">
                        <mxPoint x="425" y="90" as="sourcePoint"/>
                        <mxPoint x="465" y="90.00000000000011" as="targetPoint"/>
                    </mxGeometry>
                </mxCell>
                <mxCell id="-T_Ne5oc-l_mOEuj397E-18" value="" style="ellipse;whiteSpace=wrap;html=1;aspect=fixed;" vertex="1" parent="GeNnxmpwi4FWAQNpwRj0-1">
                    <mxGeometry x="385" y="70" width="40" height="40" as="geometry"/>
                </mxCell>
                <mxCell id="-T_Ne5oc-l_mOEuj397E-19" value="" style="endArrow=none;html=1;exitX=0;exitY=1;exitDx=0;exitDy=0;entryX=1;entryY=0;entryDx=0;entryDy=0;" edge="1" parent="GeNnxmpwi4FWAQNpwRj0-1" source="-T_Ne5oc-l_mOEuj397E-18" target="-T_Ne5oc-l_mOEuj397E-18">
                    <mxGeometry width="50" height="50" relative="1" as="geometry">
                        <mxPoint x="505" y="160" as="sourcePoint"/>
                        <mxPoint x="555" y="110" as="targetPoint"/>
                    </mxGeometry>
                </mxCell>
                <mxCell id="-T_Ne5oc-l_mOEuj397E-20" value="" style="shape=flexArrow;endArrow=classic;html=1;strokeColor=default;exitX=1;exitY=0.5;exitDx=0;exitDy=0;" edge="1" parent="GeNnxmpwi4FWAQNpwRj0-1" source="-T_Ne5oc-l_mOEuj397E-21">
                    <mxGeometry width="50" height="50" relative="1" as="geometry">
                        <mxPoint x="425" y="140" as="sourcePoint"/>
                        <mxPoint x="465" y="140.0000000000001" as="targetPoint"/>
                    </mxGeometry>
                </mxCell>
                <mxCell id="-T_Ne5oc-l_mOEuj397E-21" value="" style="ellipse;whiteSpace=wrap;html=1;aspect=fixed;" vertex="1" parent="GeNnxmpwi4FWAQNpwRj0-1">
                    <mxGeometry x="385" y="120" width="40" height="40" as="geometry"/>
                </mxCell>
                <mxCell id="-T_Ne5oc-l_mOEuj397E-22" value="" style="endArrow=none;html=1;exitX=0;exitY=1;exitDx=0;exitDy=0;entryX=1;entryY=0;entryDx=0;entryDy=0;" edge="1" parent="GeNnxmpwi4FWAQNpwRj0-1" source="-T_Ne5oc-l_mOEuj397E-21" target="-T_Ne5oc-l_mOEuj397E-21">
                    <mxGeometry width="50" height="50" relative="1" as="geometry">
                        <mxPoint x="505" y="210" as="sourcePoint"/>
                        <mxPoint x="555" y="160" as="targetPoint"/>
                    </mxGeometry>
                </mxCell>
                <mxCell id="-T_Ne5oc-l_mOEuj397E-23" style="edgeStyle=none;html=1;exitX=1;exitY=0.5;exitDx=0;exitDy=0;entryX=0;entryY=0.5;entryDx=0;entryDy=0;endArrow=none;endFill=0;strokeColor=default;" edge="1" parent="GeNnxmpwi4FWAQNpwRj0-1" source="-T_Ne5oc-l_mOEuj397E-26" target="-T_Ne5oc-l_mOEuj397E-15">
                    <mxGeometry relative="1" as="geometry"/>
                </mxCell>
                <mxCell id="-T_Ne5oc-l_mOEuj397E-24" style="edgeStyle=none;html=1;exitX=1;exitY=0.5;exitDx=0;exitDy=0;entryX=0;entryY=0.5;entryDx=0;entryDy=0;endArrow=none;endFill=0;strokeColor=default;" edge="1" parent="GeNnxmpwi4FWAQNpwRj0-1" source="-T_Ne5oc-l_mOEuj397E-26" target="-T_Ne5oc-l_mOEuj397E-18">
                    <mxGeometry relative="1" as="geometry"/>
                </mxCell>
                <mxCell id="-T_Ne5oc-l_mOEuj397E-25" style="edgeStyle=none;html=1;exitX=1;exitY=0.5;exitDx=0;exitDy=0;entryX=0;entryY=0.5;entryDx=0;entryDy=0;endArrow=none;endFill=0;strokeColor=default;" edge="1" parent="GeNnxmpwi4FWAQNpwRj0-1" source="-T_Ne5oc-l_mOEuj397E-26" target="-T_Ne5oc-l_mOEuj397E-21">
                    <mxGeometry relative="1" as="geometry"/>
                </mxCell>
                <mxCell id="-T_Ne5oc-l_mOEuj397E-26" value="" style="ellipse;whiteSpace=wrap;html=1;aspect=fixed;" vertex="1" parent="GeNnxmpwi4FWAQNpwRj0-1">
                    <mxGeometry x="240" width="40" height="40" as="geometry"/>
                </mxCell>
                <mxCell id="-T_Ne5oc-l_mOEuj397E-28" style="edgeStyle=none;html=1;exitX=1;exitY=0.5;exitDx=0;exitDy=0;entryX=0;entryY=0.5;entryDx=0;entryDy=0;endArrow=none;endFill=0;strokeColor=default;" edge="1" parent="GeNnxmpwi4FWAQNpwRj0-1" source="-T_Ne5oc-l_mOEuj397E-31" target="-T_Ne5oc-l_mOEuj397E-15">
                    <mxGeometry relative="1" as="geometry"/>
                </mxCell>
                <mxCell id="-T_Ne5oc-l_mOEuj397E-29" style="edgeStyle=none;html=1;exitX=1;exitY=0.5;exitDx=0;exitDy=0;entryX=0;entryY=0.5;entryDx=0;entryDy=0;endArrow=none;endFill=0;strokeColor=default;" edge="1" parent="GeNnxmpwi4FWAQNpwRj0-1" source="-T_Ne5oc-l_mOEuj397E-31" target="-T_Ne5oc-l_mOEuj397E-18">
                    <mxGeometry relative="1" as="geometry"/>
                </mxCell>
                <mxCell id="-T_Ne5oc-l_mOEuj397E-30" style="edgeStyle=none;html=1;exitX=1;exitY=0.5;exitDx=0;exitDy=0;entryX=0;entryY=0.5;entryDx=0;entryDy=0;endArrow=none;endFill=0;strokeColor=default;" edge="1" parent="GeNnxmpwi4FWAQNpwRj0-1" source="-T_Ne5oc-l_mOEuj397E-31" target="-T_Ne5oc-l_mOEuj397E-21">
                    <mxGeometry relative="1" as="geometry"/>
                </mxCell>
                <mxCell id="-T_Ne5oc-l_mOEuj397E-31" value="" style="ellipse;whiteSpace=wrap;html=1;aspect=fixed;" vertex="1" parent="GeNnxmpwi4FWAQNpwRj0-1">
                    <mxGeometry x="240" y="40" width="40" height="40" as="geometry"/>
                </mxCell>
                <mxCell id="-T_Ne5oc-l_mOEuj397E-33" style="edgeStyle=none;html=1;exitX=1;exitY=0.5;exitDx=0;exitDy=0;entryX=0;entryY=0.5;entryDx=0;entryDy=0;endArrow=none;endFill=0;strokeColor=default;" edge="1" parent="GeNnxmpwi4FWAQNpwRj0-1" source="-T_Ne5oc-l_mOEuj397E-36" target="-T_Ne5oc-l_mOEuj397E-18">
                    <mxGeometry relative="1" as="geometry"/>
                </mxCell>
                <mxCell id="-T_Ne5oc-l_mOEuj397E-34" style="edgeStyle=none;html=1;exitX=1;exitY=0.5;exitDx=0;exitDy=0;entryX=0;entryY=0.5;entryDx=0;entryDy=0;endArrow=none;endFill=0;strokeColor=default;" edge="1" parent="GeNnxmpwi4FWAQNpwRj0-1" source="-T_Ne5oc-l_mOEuj397E-36" target="-T_Ne5oc-l_mOEuj397E-15">
                    <mxGeometry relative="1" as="geometry"/>
                </mxCell>
                <mxCell id="-T_Ne5oc-l_mOEuj397E-35" style="edgeStyle=none;html=1;exitX=1;exitY=0.5;exitDx=0;exitDy=0;entryX=0;entryY=0.5;entryDx=0;entryDy=0;endArrow=none;endFill=0;strokeColor=default;" edge="1" parent="GeNnxmpwi4FWAQNpwRj0-1" source="-T_Ne5oc-l_mOEuj397E-36" target="-T_Ne5oc-l_mOEuj397E-21">
                    <mxGeometry relative="1" as="geometry"/>
                </mxCell>
                <mxCell id="-T_Ne5oc-l_mOEuj397E-36" value="" style="ellipse;whiteSpace=wrap;html=1;aspect=fixed;" vertex="1" parent="GeNnxmpwi4FWAQNpwRj0-1">
                    <mxGeometry x="240" y="80" width="40" height="40" as="geometry"/>
                </mxCell>
                <mxCell id="-T_Ne5oc-l_mOEuj397E-38" style="edgeStyle=none;html=1;exitX=1;exitY=0.5;exitDx=0;exitDy=0;entryX=0;entryY=0.5;entryDx=0;entryDy=0;endArrow=none;endFill=0;strokeColor=default;" edge="1" parent="GeNnxmpwi4FWAQNpwRj0-1" source="-T_Ne5oc-l_mOEuj397E-41" target="-T_Ne5oc-l_mOEuj397E-21">
                    <mxGeometry relative="1" as="geometry"/>
                </mxCell>
                <mxCell id="-T_Ne5oc-l_mOEuj397E-39" style="edgeStyle=none;html=1;exitX=1;exitY=0.5;exitDx=0;exitDy=0;entryX=0;entryY=0.5;entryDx=0;entryDy=0;endArrow=none;endFill=0;strokeColor=default;" edge="1" parent="GeNnxmpwi4FWAQNpwRj0-1" source="-T_Ne5oc-l_mOEuj397E-41" target="-T_Ne5oc-l_mOEuj397E-15">
                    <mxGeometry relative="1" as="geometry"/>
                </mxCell>
                <mxCell id="-T_Ne5oc-l_mOEuj397E-40" style="edgeStyle=none;html=1;exitX=1;exitY=0.5;exitDx=0;exitDy=0;entryX=0;entryY=0.5;entryDx=0;entryDy=0;endArrow=none;endFill=0;strokeColor=default;" edge="1" parent="GeNnxmpwi4FWAQNpwRj0-1" source="-T_Ne5oc-l_mOEuj397E-41" target="-T_Ne5oc-l_mOEuj397E-18">
                    <mxGeometry relative="1" as="geometry"/>
                </mxCell>
                <mxCell id="-T_Ne5oc-l_mOEuj397E-41" value="" style="ellipse;whiteSpace=wrap;html=1;aspect=fixed;" vertex="1" parent="GeNnxmpwi4FWAQNpwRj0-1">
                    <mxGeometry x="240" y="120" width="40" height="40" as="geometry"/>
                </mxCell>
                <mxCell id="-T_Ne5oc-l_mOEuj397E-43" style="edgeStyle=none;html=1;exitX=1;exitY=0.5;exitDx=0;exitDy=0;entryX=0;entryY=0.5;entryDx=0;entryDy=0;endArrow=none;endFill=0;strokeColor=default;" edge="1" parent="GeNnxmpwi4FWAQNpwRj0-1" source="-T_Ne5oc-l_mOEuj397E-46" target="-T_Ne5oc-l_mOEuj397E-15">
                    <mxGeometry relative="1" as="geometry"/>
                </mxCell>
                <mxCell id="-T_Ne5oc-l_mOEuj397E-44" style="edgeStyle=none;html=1;exitX=1;exitY=0.5;exitDx=0;exitDy=0;entryX=0;entryY=0.5;entryDx=0;entryDy=0;endArrow=none;endFill=0;strokeColor=default;" edge="1" parent="GeNnxmpwi4FWAQNpwRj0-1" source="-T_Ne5oc-l_mOEuj397E-46" target="-T_Ne5oc-l_mOEuj397E-18">
                    <mxGeometry relative="1" as="geometry"/>
                </mxCell>
                <mxCell id="-T_Ne5oc-l_mOEuj397E-45" style="edgeStyle=none;html=1;exitX=1;exitY=0.5;exitDx=0;exitDy=0;entryX=0;entryY=0.5;entryDx=0;entryDy=0;endArrow=none;endFill=0;strokeColor=default;" edge="1" parent="GeNnxmpwi4FWAQNpwRj0-1" source="-T_Ne5oc-l_mOEuj397E-46" target="-T_Ne5oc-l_mOEuj397E-21">
                    <mxGeometry relative="1" as="geometry"/>
                </mxCell>
                <mxCell id="-T_Ne5oc-l_mOEuj397E-46" value="" style="ellipse;whiteSpace=wrap;html=1;aspect=fixed;" vertex="1" parent="GeNnxmpwi4FWAQNpwRj0-1">
                    <mxGeometry x="240" y="160" width="40" height="40" as="geometry"/>
                </mxCell>
                <mxCell id="-T_Ne5oc-l_mOEuj397E-48" style="edgeStyle=none;html=1;exitX=0;exitY=1;exitDx=0;exitDy=0;entryX=1;entryY=0;entryDx=0;entryDy=0;endArrow=none;endFill=0;strokeColor=default;" edge="1" parent="GeNnxmpwi4FWAQNpwRj0-1" source="-T_Ne5oc-l_mOEuj397E-26" target="-T_Ne5oc-l_mOEuj397E-26">
                    <mxGeometry relative="1" as="geometry"/>
                </mxCell>
                <mxCell id="-T_Ne5oc-l_mOEuj397E-49" style="edgeStyle=none;html=1;exitX=0;exitY=1;exitDx=0;exitDy=0;entryX=1;entryY=0;entryDx=0;entryDy=0;endArrow=none;endFill=0;strokeColor=default;" edge="1" parent="GeNnxmpwi4FWAQNpwRj0-1" source="-T_Ne5oc-l_mOEuj397E-31" target="-T_Ne5oc-l_mOEuj397E-31">
                    <mxGeometry relative="1" as="geometry"/>
                </mxCell>
                <mxCell id="-T_Ne5oc-l_mOEuj397E-50" style="edgeStyle=none;html=1;exitX=0;exitY=1;exitDx=0;exitDy=0;entryX=1;entryY=0;entryDx=0;entryDy=0;endArrow=none;endFill=0;strokeColor=default;" edge="1" parent="GeNnxmpwi4FWAQNpwRj0-1" source="-T_Ne5oc-l_mOEuj397E-36" target="-T_Ne5oc-l_mOEuj397E-36">
                    <mxGeometry relative="1" as="geometry"/>
                </mxCell>
                <mxCell id="-T_Ne5oc-l_mOEuj397E-51" style="edgeStyle=none;html=1;exitX=0;exitY=1;exitDx=0;exitDy=0;entryX=1;entryY=0;entryDx=0;entryDy=0;endArrow=none;endFill=0;strokeColor=default;" edge="1" parent="GeNnxmpwi4FWAQNpwRj0-1" source="-T_Ne5oc-l_mOEuj397E-41" target="-T_Ne5oc-l_mOEuj397E-41">
                    <mxGeometry relative="1" as="geometry"/>
                </mxCell>
                <mxCell id="-T_Ne5oc-l_mOEuj397E-52" style="edgeStyle=none;html=1;exitX=0;exitY=1;exitDx=0;exitDy=0;entryX=1;entryY=0;entryDx=0;entryDy=0;endArrow=none;endFill=0;strokeColor=default;" edge="1" parent="GeNnxmpwi4FWAQNpwRj0-1" source="-T_Ne5oc-l_mOEuj397E-46" target="-T_Ne5oc-l_mOEuj397E-46">
                    <mxGeometry relative="1" as="geometry"/>
                </mxCell>
            </root>
        </mxGraphModel>
    </diagram>
    <diagram id="RTxp3VEjj7s3IWIyjzDe" name="net3">
        <mxGraphModel dx="771" dy="300" grid="1" gridSize="10" guides="1" tooltips="1" connect="1" arrows="1" fold="1" page="1" pageScale="1" pageWidth="850" pageHeight="1100" math="0" shadow="0">
            <root>
                <mxCell id="ZJLeBFQ-7HlpDqwqLIrd-0"/>
                <mxCell id="ZJLeBFQ-7HlpDqwqLIrd-1" parent="ZJLeBFQ-7HlpDqwqLIrd-0"/>
                <mxCell id="7y_1J0fYc-7iTsICIXbC-11" style="edgeStyle=none;html=1;exitX=1;exitY=0.5;exitDx=0;exitDy=0;entryX=0;entryY=0.5;entryDx=0;entryDy=0;endArrow=none;endFill=0;strokeColor=default;" edge="1" parent="ZJLeBFQ-7HlpDqwqLIrd-1" source="KIJNLu3EdopbblDigrWt-0" target="7y_1J0fYc-7iTsICIXbC-0">
                    <mxGeometry relative="1" as="geometry"/>
                </mxCell>
                <mxCell id="7y_1J0fYc-7iTsICIXbC-12" style="edgeStyle=none;html=1;exitX=1;exitY=0.5;exitDx=0;exitDy=0;entryX=0;entryY=0.5;entryDx=0;entryDy=0;endArrow=none;endFill=0;strokeColor=default;" edge="1" parent="ZJLeBFQ-7HlpDqwqLIrd-1" source="KIJNLu3EdopbblDigrWt-0" target="7y_1J0fYc-7iTsICIXbC-2">
                    <mxGeometry relative="1" as="geometry"/>
                </mxCell>
                <mxCell id="7y_1J0fYc-7iTsICIXbC-13" style="edgeStyle=none;html=1;exitX=1;exitY=0.5;exitDx=0;exitDy=0;entryX=0;entryY=0.5;entryDx=0;entryDy=0;endArrow=none;endFill=0;strokeColor=default;" edge="1" parent="ZJLeBFQ-7HlpDqwqLIrd-1" source="KIJNLu3EdopbblDigrWt-0" target="7y_1J0fYc-7iTsICIXbC-4">
                    <mxGeometry relative="1" as="geometry"/>
                </mxCell>
                <mxCell id="7y_1J0fYc-7iTsICIXbC-14" style="edgeStyle=none;html=1;exitX=1;exitY=0.5;exitDx=0;exitDy=0;entryX=0;entryY=0.5;entryDx=0;entryDy=0;endArrow=none;endFill=0;strokeColor=default;" edge="1" parent="ZJLeBFQ-7HlpDqwqLIrd-1" source="KIJNLu3EdopbblDigrWt-0" target="7y_1J0fYc-7iTsICIXbC-6">
                    <mxGeometry relative="1" as="geometry"/>
                </mxCell>
                <mxCell id="7y_1J0fYc-7iTsICIXbC-15" style="edgeStyle=none;html=1;exitX=1;exitY=0.5;exitDx=0;exitDy=0;entryX=0;entryY=0.5;entryDx=0;entryDy=0;endArrow=none;endFill=0;strokeColor=default;" edge="1" parent="ZJLeBFQ-7HlpDqwqLIrd-1" source="KIJNLu3EdopbblDigrWt-0" target="7y_1J0fYc-7iTsICIXbC-8">
                    <mxGeometry relative="1" as="geometry"/>
                </mxCell>
                <mxCell id="KIJNLu3EdopbblDigrWt-0" value="" style="ellipse;whiteSpace=wrap;html=1;aspect=fixed;" vertex="1" parent="ZJLeBFQ-7HlpDqwqLIrd-1">
                    <mxGeometry x="120" y="40" width="40" height="40" as="geometry"/>
                </mxCell>
                <mxCell id="KIJNLu3EdopbblDigrWt-1" value="" style="shape=flexArrow;endArrow=classic;html=1;strokeColor=default;entryX=0;entryY=0.5;entryDx=0;entryDy=0;" edge="1" parent="ZJLeBFQ-7HlpDqwqLIrd-1" target="KIJNLu3EdopbblDigrWt-0">
                    <mxGeometry width="50" height="50" relative="1" as="geometry">
                        <mxPoint x="80.00000000000011" y="60" as="sourcePoint"/>
                        <mxPoint x="90" y="20" as="targetPoint"/>
                    </mxGeometry>
                </mxCell>
                <mxCell id="7y_1J0fYc-7iTsICIXbC-16" style="edgeStyle=none;html=1;exitX=1;exitY=0.5;exitDx=0;exitDy=0;entryX=0;entryY=0.5;entryDx=0;entryDy=0;endArrow=none;endFill=0;strokeColor=default;" edge="1" parent="ZJLeBFQ-7HlpDqwqLIrd-1" source="KIJNLu3EdopbblDigrWt-2" target="7y_1J0fYc-7iTsICIXbC-0">
                    <mxGeometry relative="1" as="geometry"/>
                </mxCell>
                <mxCell id="7y_1J0fYc-7iTsICIXbC-17" style="edgeStyle=none;html=1;exitX=1;exitY=0.5;exitDx=0;exitDy=0;entryX=0;entryY=0.5;entryDx=0;entryDy=0;endArrow=none;endFill=0;strokeColor=default;" edge="1" parent="ZJLeBFQ-7HlpDqwqLIrd-1" source="KIJNLu3EdopbblDigrWt-2" target="7y_1J0fYc-7iTsICIXbC-2">
                    <mxGeometry relative="1" as="geometry"/>
                </mxCell>
                <mxCell id="7y_1J0fYc-7iTsICIXbC-18" style="edgeStyle=none;html=1;exitX=1;exitY=0.5;exitDx=0;exitDy=0;entryX=0;entryY=0.5;entryDx=0;entryDy=0;endArrow=none;endFill=0;strokeColor=default;" edge="1" parent="ZJLeBFQ-7HlpDqwqLIrd-1" source="KIJNLu3EdopbblDigrWt-2" target="7y_1J0fYc-7iTsICIXbC-4">
                    <mxGeometry relative="1" as="geometry"/>
                </mxCell>
                <mxCell id="7y_1J0fYc-7iTsICIXbC-19" style="edgeStyle=none;html=1;exitX=1;exitY=0.5;exitDx=0;exitDy=0;entryX=0;entryY=0.5;entryDx=0;entryDy=0;endArrow=none;endFill=0;strokeColor=default;" edge="1" parent="ZJLeBFQ-7HlpDqwqLIrd-1" source="KIJNLu3EdopbblDigrWt-2" target="7y_1J0fYc-7iTsICIXbC-6">
                    <mxGeometry relative="1" as="geometry"/>
                </mxCell>
                <mxCell id="7y_1J0fYc-7iTsICIXbC-20" style="edgeStyle=none;html=1;exitX=1;exitY=0.5;exitDx=0;exitDy=0;entryX=0;entryY=0.5;entryDx=0;entryDy=0;endArrow=none;endFill=0;strokeColor=default;" edge="1" parent="ZJLeBFQ-7HlpDqwqLIrd-1" source="KIJNLu3EdopbblDigrWt-2" target="7y_1J0fYc-7iTsICIXbC-8">
                    <mxGeometry relative="1" as="geometry"/>
                </mxCell>
                <mxCell id="KIJNLu3EdopbblDigrWt-2" value="" style="ellipse;whiteSpace=wrap;html=1;aspect=fixed;" vertex="1" parent="ZJLeBFQ-7HlpDqwqLIrd-1">
                    <mxGeometry x="120" y="100" width="40" height="40" as="geometry"/>
                </mxCell>
                <mxCell id="KIJNLu3EdopbblDigrWt-3" value="" style="shape=flexArrow;endArrow=classic;html=1;strokeColor=default;entryX=0;entryY=0.5;entryDx=0;entryDy=0;" edge="1" parent="ZJLeBFQ-7HlpDqwqLIrd-1" target="KIJNLu3EdopbblDigrWt-2">
                    <mxGeometry width="50" height="50" relative="1" as="geometry">
                        <mxPoint x="80.00000000000011" y="120.00000000000006" as="sourcePoint"/>
                        <mxPoint x="90" y="80" as="targetPoint"/>
                    </mxGeometry>
                </mxCell>
                <mxCell id="2zHfYvP5aeZfkK35CqV4-0" value="" style="shape=flexArrow;endArrow=classic;html=1;strokeColor=default;exitX=1;exitY=0.5;exitDx=0;exitDy=0;" edge="1" parent="ZJLeBFQ-7HlpDqwqLIrd-1" source="2zHfYvP5aeZfkK35CqV4-1">
                    <mxGeometry width="50" height="50" relative="1" as="geometry">
                        <mxPoint x="425" y="40" as="sourcePoint"/>
                        <mxPoint x="465" y="40" as="targetPoint"/>
                    </mxGeometry>
                </mxCell>
                <mxCell id="2zHfYvP5aeZfkK35CqV4-1" value="" style="ellipse;whiteSpace=wrap;html=1;aspect=fixed;" vertex="1" parent="ZJLeBFQ-7HlpDqwqLIrd-1">
                    <mxGeometry x="385" y="20" width="40" height="40" as="geometry"/>
                </mxCell>
                <mxCell id="2zHfYvP5aeZfkK35CqV4-2" value="" style="endArrow=none;html=1;exitX=0;exitY=1;exitDx=0;exitDy=0;entryX=1;entryY=0;entryDx=0;entryDy=0;" edge="1" parent="ZJLeBFQ-7HlpDqwqLIrd-1" source="2zHfYvP5aeZfkK35CqV4-1" target="2zHfYvP5aeZfkK35CqV4-1">
                    <mxGeometry width="50" height="50" relative="1" as="geometry">
                        <mxPoint x="505" y="110" as="sourcePoint"/>
                        <mxPoint x="555" y="60" as="targetPoint"/>
                    </mxGeometry>
                </mxCell>
                <mxCell id="2zHfYvP5aeZfkK35CqV4-3" value="" style="shape=flexArrow;endArrow=classic;html=1;strokeColor=default;exitX=1;exitY=0.5;exitDx=0;exitDy=0;" edge="1" parent="ZJLeBFQ-7HlpDqwqLIrd-1" source="2zHfYvP5aeZfkK35CqV4-4">
                    <mxGeometry width="50" height="50" relative="1" as="geometry">
                        <mxPoint x="425" y="90" as="sourcePoint"/>
                        <mxPoint x="465" y="90.00000000000006" as="targetPoint"/>
                    </mxGeometry>
                </mxCell>
                <mxCell id="2zHfYvP5aeZfkK35CqV4-4" value="" style="ellipse;whiteSpace=wrap;html=1;aspect=fixed;" vertex="1" parent="ZJLeBFQ-7HlpDqwqLIrd-1">
                    <mxGeometry x="385" y="70" width="40" height="40" as="geometry"/>
                </mxCell>
                <mxCell id="2zHfYvP5aeZfkK35CqV4-5" value="" style="endArrow=none;html=1;exitX=0;exitY=1;exitDx=0;exitDy=0;entryX=1;entryY=0;entryDx=0;entryDy=0;" edge="1" parent="ZJLeBFQ-7HlpDqwqLIrd-1" source="2zHfYvP5aeZfkK35CqV4-4" target="2zHfYvP5aeZfkK35CqV4-4">
                    <mxGeometry width="50" height="50" relative="1" as="geometry">
                        <mxPoint x="505" y="160" as="sourcePoint"/>
                        <mxPoint x="555" y="110" as="targetPoint"/>
                    </mxGeometry>
                </mxCell>
                <mxCell id="2zHfYvP5aeZfkK35CqV4-6" value="" style="shape=flexArrow;endArrow=classic;html=1;strokeColor=default;exitX=1;exitY=0.5;exitDx=0;exitDy=0;" edge="1" parent="ZJLeBFQ-7HlpDqwqLIrd-1" source="2zHfYvP5aeZfkK35CqV4-7">
                    <mxGeometry width="50" height="50" relative="1" as="geometry">
                        <mxPoint x="425" y="140" as="sourcePoint"/>
                        <mxPoint x="465" y="140.00000000000006" as="targetPoint"/>
                    </mxGeometry>
                </mxCell>
                <mxCell id="2zHfYvP5aeZfkK35CqV4-7" value="" style="ellipse;whiteSpace=wrap;html=1;aspect=fixed;" vertex="1" parent="ZJLeBFQ-7HlpDqwqLIrd-1">
                    <mxGeometry x="385" y="120" width="40" height="40" as="geometry"/>
                </mxCell>
                <mxCell id="2zHfYvP5aeZfkK35CqV4-8" value="" style="endArrow=none;html=1;exitX=0;exitY=1;exitDx=0;exitDy=0;entryX=1;entryY=0;entryDx=0;entryDy=0;" edge="1" parent="ZJLeBFQ-7HlpDqwqLIrd-1" source="2zHfYvP5aeZfkK35CqV4-7" target="2zHfYvP5aeZfkK35CqV4-7">
                    <mxGeometry width="50" height="50" relative="1" as="geometry">
                        <mxPoint x="505" y="210" as="sourcePoint"/>
                        <mxPoint x="555" y="160" as="targetPoint"/>
                    </mxGeometry>
                </mxCell>
                <mxCell id="7y_1J0fYc-7iTsICIXbC-21" style="edgeStyle=none;html=1;exitX=1;exitY=0.5;exitDx=0;exitDy=0;entryX=0;entryY=0.5;entryDx=0;entryDy=0;endArrow=none;endFill=0;strokeColor=default;" edge="1" parent="ZJLeBFQ-7HlpDqwqLIrd-1" source="7y_1J0fYc-7iTsICIXbC-0" target="2zHfYvP5aeZfkK35CqV4-1">
                    <mxGeometry relative="1" as="geometry"/>
                </mxCell>
                <mxCell id="7y_1J0fYc-7iTsICIXbC-22" style="edgeStyle=none;html=1;exitX=1;exitY=0.5;exitDx=0;exitDy=0;entryX=0;entryY=0.5;entryDx=0;entryDy=0;endArrow=none;endFill=0;strokeColor=default;" edge="1" parent="ZJLeBFQ-7HlpDqwqLIrd-1" source="7y_1J0fYc-7iTsICIXbC-0" target="2zHfYvP5aeZfkK35CqV4-4">
                    <mxGeometry relative="1" as="geometry"/>
                </mxCell>
                <mxCell id="7y_1J0fYc-7iTsICIXbC-23" style="edgeStyle=none;html=1;exitX=1;exitY=0.5;exitDx=0;exitDy=0;entryX=0;entryY=0.5;entryDx=0;entryDy=0;endArrow=none;endFill=0;strokeColor=default;" edge="1" parent="ZJLeBFQ-7HlpDqwqLIrd-1" source="7y_1J0fYc-7iTsICIXbC-0" target="2zHfYvP5aeZfkK35CqV4-7">
                    <mxGeometry relative="1" as="geometry"/>
                </mxCell>
                <mxCell id="7y_1J0fYc-7iTsICIXbC-0" value="" style="ellipse;whiteSpace=wrap;html=1;aspect=fixed;" vertex="1" parent="ZJLeBFQ-7HlpDqwqLIrd-1">
                    <mxGeometry x="240" width="40" height="40" as="geometry"/>
                </mxCell>
                <mxCell id="7y_1J0fYc-7iTsICIXbC-1" value="" style="curved=1;endArrow=none;html=1;exitX=0;exitY=1;exitDx=0;exitDy=0;entryX=1;entryY=0;entryDx=0;entryDy=0;strokeColor=default;endFill=0;" edge="1" parent="ZJLeBFQ-7HlpDqwqLIrd-1" source="7y_1J0fYc-7iTsICIXbC-0" target="7y_1J0fYc-7iTsICIXbC-0">
                    <mxGeometry width="50" height="50" relative="1" as="geometry">
                        <mxPoint x="360" y="170" as="sourcePoint"/>
                        <mxPoint x="410" y="120" as="targetPoint"/>
                        <Array as="points">
                            <mxPoint x="260" y="30"/>
                            <mxPoint x="260" y="6"/>
                        </Array>
                    </mxGeometry>
                </mxCell>
                <mxCell id="7y_1J0fYc-7iTsICIXbC-24" style="edgeStyle=none;html=1;exitX=1;exitY=0.5;exitDx=0;exitDy=0;entryX=0;entryY=0.5;entryDx=0;entryDy=0;endArrow=none;endFill=0;strokeColor=default;" edge="1" parent="ZJLeBFQ-7HlpDqwqLIrd-1" source="7y_1J0fYc-7iTsICIXbC-2" target="2zHfYvP5aeZfkK35CqV4-1">
                    <mxGeometry relative="1" as="geometry"/>
                </mxCell>
                <mxCell id="7y_1J0fYc-7iTsICIXbC-27" style="edgeStyle=none;html=1;exitX=1;exitY=0.5;exitDx=0;exitDy=0;entryX=0;entryY=0.5;entryDx=0;entryDy=0;endArrow=none;endFill=0;strokeColor=default;" edge="1" parent="ZJLeBFQ-7HlpDqwqLIrd-1" source="7y_1J0fYc-7iTsICIXbC-2" target="2zHfYvP5aeZfkK35CqV4-4">
                    <mxGeometry relative="1" as="geometry"/>
                </mxCell>
                <mxCell id="7y_1J0fYc-7iTsICIXbC-28" style="edgeStyle=none;html=1;exitX=1;exitY=0.5;exitDx=0;exitDy=0;entryX=0;entryY=0.5;entryDx=0;entryDy=0;endArrow=none;endFill=0;strokeColor=default;" edge="1" parent="ZJLeBFQ-7HlpDqwqLIrd-1" source="7y_1J0fYc-7iTsICIXbC-2" target="2zHfYvP5aeZfkK35CqV4-7">
                    <mxGeometry relative="1" as="geometry"/>
                </mxCell>
                <mxCell id="7y_1J0fYc-7iTsICIXbC-2" value="" style="ellipse;whiteSpace=wrap;html=1;aspect=fixed;" vertex="1" parent="ZJLeBFQ-7HlpDqwqLIrd-1">
                    <mxGeometry x="240" y="40" width="40" height="40" as="geometry"/>
                </mxCell>
                <mxCell id="7y_1J0fYc-7iTsICIXbC-3" value="" style="curved=1;endArrow=none;html=1;exitX=0;exitY=1;exitDx=0;exitDy=0;entryX=1;entryY=0;entryDx=0;entryDy=0;strokeColor=default;endFill=0;" edge="1" parent="ZJLeBFQ-7HlpDqwqLIrd-1" source="7y_1J0fYc-7iTsICIXbC-2" target="7y_1J0fYc-7iTsICIXbC-2">
                    <mxGeometry width="50" height="50" relative="1" as="geometry">
                        <mxPoint x="360" y="210" as="sourcePoint"/>
                        <mxPoint x="410" y="160" as="targetPoint"/>
                        <Array as="points">
                            <mxPoint x="260" y="70"/>
                            <mxPoint x="260" y="46"/>
                        </Array>
                    </mxGeometry>
                </mxCell>
                <mxCell id="7y_1J0fYc-7iTsICIXbC-25" style="edgeStyle=none;html=1;exitX=1;exitY=0.5;exitDx=0;exitDy=0;entryX=0;entryY=0.5;entryDx=0;entryDy=0;endArrow=none;endFill=0;strokeColor=default;" edge="1" parent="ZJLeBFQ-7HlpDqwqLIrd-1" source="7y_1J0fYc-7iTsICIXbC-4" target="2zHfYvP5aeZfkK35CqV4-4">
                    <mxGeometry relative="1" as="geometry"/>
                </mxCell>
                <mxCell id="7y_1J0fYc-7iTsICIXbC-29" style="edgeStyle=none;html=1;exitX=1;exitY=0.5;exitDx=0;exitDy=0;entryX=0;entryY=0.5;entryDx=0;entryDy=0;endArrow=none;endFill=0;strokeColor=default;" edge="1" parent="ZJLeBFQ-7HlpDqwqLIrd-1" source="7y_1J0fYc-7iTsICIXbC-4" target="2zHfYvP5aeZfkK35CqV4-1">
                    <mxGeometry relative="1" as="geometry"/>
                </mxCell>
                <mxCell id="7y_1J0fYc-7iTsICIXbC-30" style="edgeStyle=none;html=1;exitX=1;exitY=0.5;exitDx=0;exitDy=0;entryX=0;entryY=0.5;entryDx=0;entryDy=0;endArrow=none;endFill=0;strokeColor=default;" edge="1" parent="ZJLeBFQ-7HlpDqwqLIrd-1" source="7y_1J0fYc-7iTsICIXbC-4" target="2zHfYvP5aeZfkK35CqV4-7">
                    <mxGeometry relative="1" as="geometry"/>
                </mxCell>
                <mxCell id="7y_1J0fYc-7iTsICIXbC-4" value="" style="ellipse;whiteSpace=wrap;html=1;aspect=fixed;" vertex="1" parent="ZJLeBFQ-7HlpDqwqLIrd-1">
                    <mxGeometry x="240" y="80" width="40" height="40" as="geometry"/>
                </mxCell>
                <mxCell id="7y_1J0fYc-7iTsICIXbC-5" value="" style="curved=1;endArrow=none;html=1;exitX=0;exitY=1;exitDx=0;exitDy=0;entryX=1;entryY=0;entryDx=0;entryDy=0;strokeColor=default;endFill=0;" edge="1" parent="ZJLeBFQ-7HlpDqwqLIrd-1" source="7y_1J0fYc-7iTsICIXbC-4" target="7y_1J0fYc-7iTsICIXbC-4">
                    <mxGeometry width="50" height="50" relative="1" as="geometry">
                        <mxPoint x="360" y="250" as="sourcePoint"/>
                        <mxPoint x="410" y="200" as="targetPoint"/>
                        <Array as="points">
                            <mxPoint x="260" y="110"/>
                            <mxPoint x="260" y="86"/>
                        </Array>
                    </mxGeometry>
                </mxCell>
                <mxCell id="7y_1J0fYc-7iTsICIXbC-26" style="edgeStyle=none;html=1;exitX=1;exitY=0.5;exitDx=0;exitDy=0;entryX=0;entryY=0.5;entryDx=0;entryDy=0;endArrow=none;endFill=0;strokeColor=default;" edge="1" parent="ZJLeBFQ-7HlpDqwqLIrd-1" source="7y_1J0fYc-7iTsICIXbC-6" target="2zHfYvP5aeZfkK35CqV4-7">
                    <mxGeometry relative="1" as="geometry"/>
                </mxCell>
                <mxCell id="7y_1J0fYc-7iTsICIXbC-31" style="edgeStyle=none;html=1;exitX=1;exitY=0.5;exitDx=0;exitDy=0;entryX=0;entryY=0.5;entryDx=0;entryDy=0;endArrow=none;endFill=0;strokeColor=default;" edge="1" parent="ZJLeBFQ-7HlpDqwqLIrd-1" source="7y_1J0fYc-7iTsICIXbC-6" target="2zHfYvP5aeZfkK35CqV4-1">
                    <mxGeometry relative="1" as="geometry"/>
                </mxCell>
                <mxCell id="7y_1J0fYc-7iTsICIXbC-32" style="edgeStyle=none;html=1;exitX=1;exitY=0.5;exitDx=0;exitDy=0;entryX=0;entryY=0.5;entryDx=0;entryDy=0;endArrow=none;endFill=0;strokeColor=default;" edge="1" parent="ZJLeBFQ-7HlpDqwqLIrd-1" source="7y_1J0fYc-7iTsICIXbC-6" target="2zHfYvP5aeZfkK35CqV4-4">
                    <mxGeometry relative="1" as="geometry"/>
                </mxCell>
                <mxCell id="7y_1J0fYc-7iTsICIXbC-6" value="" style="ellipse;whiteSpace=wrap;html=1;aspect=fixed;" vertex="1" parent="ZJLeBFQ-7HlpDqwqLIrd-1">
                    <mxGeometry x="240" y="120" width="40" height="40" as="geometry"/>
                </mxCell>
                <mxCell id="7y_1J0fYc-7iTsICIXbC-7" value="" style="curved=1;endArrow=none;html=1;exitX=0;exitY=1;exitDx=0;exitDy=0;entryX=1;entryY=0;entryDx=0;entryDy=0;strokeColor=default;endFill=0;" edge="1" parent="ZJLeBFQ-7HlpDqwqLIrd-1" source="7y_1J0fYc-7iTsICIXbC-6" target="7y_1J0fYc-7iTsICIXbC-6">
                    <mxGeometry width="50" height="50" relative="1" as="geometry">
                        <mxPoint x="360" y="290" as="sourcePoint"/>
                        <mxPoint x="410" y="240" as="targetPoint"/>
                        <Array as="points">
                            <mxPoint x="260" y="150"/>
                            <mxPoint x="260" y="126"/>
                        </Array>
                    </mxGeometry>
                </mxCell>
                <mxCell id="7y_1J0fYc-7iTsICIXbC-33" style="edgeStyle=none;html=1;exitX=1;exitY=0.5;exitDx=0;exitDy=0;entryX=0;entryY=0.5;entryDx=0;entryDy=0;endArrow=none;endFill=0;strokeColor=default;" edge="1" parent="ZJLeBFQ-7HlpDqwqLIrd-1" source="7y_1J0fYc-7iTsICIXbC-8" target="2zHfYvP5aeZfkK35CqV4-1">
                    <mxGeometry relative="1" as="geometry"/>
                </mxCell>
                <mxCell id="7y_1J0fYc-7iTsICIXbC-34" style="edgeStyle=none;html=1;exitX=1;exitY=0.5;exitDx=0;exitDy=0;entryX=0;entryY=0.5;entryDx=0;entryDy=0;endArrow=none;endFill=0;strokeColor=default;" edge="1" parent="ZJLeBFQ-7HlpDqwqLIrd-1" source="7y_1J0fYc-7iTsICIXbC-8" target="2zHfYvP5aeZfkK35CqV4-4">
                    <mxGeometry relative="1" as="geometry"/>
                </mxCell>
                <mxCell id="7y_1J0fYc-7iTsICIXbC-35" style="edgeStyle=none;html=1;exitX=1;exitY=0.5;exitDx=0;exitDy=0;entryX=0;entryY=0.5;entryDx=0;entryDy=0;endArrow=none;endFill=0;strokeColor=default;" edge="1" parent="ZJLeBFQ-7HlpDqwqLIrd-1" source="7y_1J0fYc-7iTsICIXbC-8" target="2zHfYvP5aeZfkK35CqV4-7">
                    <mxGeometry relative="1" as="geometry"/>
                </mxCell>
                <mxCell id="7y_1J0fYc-7iTsICIXbC-8" value="" style="ellipse;whiteSpace=wrap;html=1;aspect=fixed;" vertex="1" parent="ZJLeBFQ-7HlpDqwqLIrd-1">
                    <mxGeometry x="240" y="160" width="40" height="40" as="geometry"/>
                </mxCell>
                <mxCell id="7y_1J0fYc-7iTsICIXbC-9" value="" style="curved=1;endArrow=none;html=1;exitX=0;exitY=1;exitDx=0;exitDy=0;entryX=1;entryY=0;entryDx=0;entryDy=0;strokeColor=default;endFill=0;" edge="1" parent="ZJLeBFQ-7HlpDqwqLIrd-1" source="7y_1J0fYc-7iTsICIXbC-8" target="7y_1J0fYc-7iTsICIXbC-8">
                    <mxGeometry width="50" height="50" relative="1" as="geometry">
                        <mxPoint x="360" y="330" as="sourcePoint"/>
                        <mxPoint x="410" y="280" as="targetPoint"/>
                        <Array as="points">
                            <mxPoint x="260" y="190"/>
                            <mxPoint x="260" y="166"/>
                        </Array>
                    </mxGeometry>
                </mxCell>
            </root>
        </mxGraphModel>
    </diagram>
</mxfile>